<svg width="187" height="69" viewBox="0 0 187 69" fill="none" xmlns="http://www.w3.org/2000/svg">
<path d="M130.2 0.628882C131.949 0.628882 133.638 0.589202 135.325 0.628882C138.527 0.722413 141.778 0.558027 144.916 1.06536C149.269 1.76826 151.982 4.82927 152.359 8.66121C152.874 13.9216 150.981 17.5382 146.707 19.457C146.452 19.5703 146.2 19.695 145.823 19.8736L154.708 30.5305C158.109 25.6839 161.442 20.9931 164.696 16.2571C164.9 15.9595 164.719 15.1942 164.464 14.8144C161.652 10.6225 158.795 6.46181 155.938 2.2926C155.621 1.82778 155.312 1.35729 154.805 0.617542C157.177 0.617542 159.339 0.750755 161.468 0.57503C163.168 0.43615 164.121 1.07386 164.974 2.47966C166.411 4.84345 168.052 7.07968 169.71 9.52283C171.541 6.81893 173.293 4.31344 174.942 1.74559C175.151 1.35833 175.47 1.04176 175.859 0.835925C176.248 0.630089 176.689 0.544235 177.127 0.589206C179.655 0.654394 182.184 0.611877 185.012 0.611877C183.768 2.37479 182.719 3.86563 181.665 5.35362C179.457 8.47132 177.277 11.6174 175.016 14.7067C174.432 15.5032 174.449 16.0048 175.038 16.7871C178.763 21.8434 182.427 26.9394 186.092 32.027C186.358 32.3926 186.602 32.7781 186.999 33.3619C183.822 33.3619 180.869 33.3931 177.929 33.3194C177.544 33.3194 177.079 32.8149 176.813 32.4351C174.474 29.119 172.173 25.7746 169.761 22.2969C169.458 22.671 169.194 22.9601 168.967 23.2804C166.836 26.3414 164.741 29.4279 162.551 32.4436C162.343 32.6955 162.087 32.9031 161.798 33.054C161.509 33.205 161.192 33.2962 160.867 33.3222C156.808 33.3959 152.746 33.3959 148.68 33.3222C147.973 33.2659 147.315 32.9353 146.849 32.4011C143.819 28.5975 140.871 24.7316 137.657 20.5737V33.2684H130.2V0.628882ZM137.592 15.2084C140.066 15.0213 142.529 15.5258 143.983 13.2244C144.478 12.4889 144.731 11.617 144.706 10.7306C144.682 9.84432 144.38 8.98796 143.844 8.28142C142.297 6.17556 139.927 6.70273 137.657 6.58086C137.632 7.16755 137.595 7.6267 137.595 8.08585C137.586 10.3986 137.592 12.7 137.592 15.2084Z" fill="white"/>
<path d="M28.4497 5.71925L23.8015 10.7926C22.7443 9.81479 21.877 8.80862 20.8142 8.0717C17.7361 5.96584 13.7285 6.44766 11.1125 9.10621C6.36788 13.9245 7.18698 22.7107 12.7393 26.058C15.1655 27.5177 17.705 27.4213 20.1623 26.1175C22.1775 25.0518 23.3395 23.3711 23.4217 20.8231H16.0044V15.0922H31.0091V20.1939C32.3185 17.1924 34.2883 14.9023 37.2161 13.5078C40.1439 12.1134 43.1681 12.1219 46.1866 13.06C50.7413 14.4772 53.3375 18.7853 52.8131 24.1137H38.2591C38.1287 25.7973 38.7835 26.8856 40.0447 27.648C41.9805 28.8214 44.8318 28.5607 46.6117 26.9111C47.3458 26.2309 47.8957 26.2082 48.7091 26.6759C49.9307 27.3759 51.2174 27.9655 52.5665 28.6599C49.942 32.8404 46.0477 34.0818 41.4845 33.9288C38.7144 33.8465 36.0795 32.7125 34.1154 30.7572C32.1031 28.8271 31.0459 26.4236 30.7455 23.6177C29.2263 28.076 26.3183 31.0775 22.0357 32.8007C12.3992 36.6752 1.51844 30.3264 0.211835 20.0153C-0.743315 12.5385 1.47592 6.34563 8.00325 2.19625C14.3294 -1.85392 24.2606 -0.0853394 28.4497 5.71925ZM45.9428 20.2421C45.5149 17.9236 43.922 16.7531 41.6914 16.9997C39.7074 17.2207 38.5029 18.431 38.5482 20.2421H45.9428Z" fill="white"/>
<path d="M61.432 33.3109H54.5107V13.0487H61.313C61.3725 13.6467 61.432 14.2278 61.5142 15.0695C61.9819 14.6954 62.322 14.4233 62.6649 14.1541C66.3495 11.2801 72.6274 12.1928 75.1187 16.0162C75.5784 16.779 75.9069 17.6135 76.0909 18.4849C76.2467 19.2722 76.3105 20.0749 76.2808 20.877C76.2978 24.9753 76.2808 29.0709 76.2808 33.2656H69.2915V28.9235C69.2915 26.7524 69.3056 24.5814 69.2915 22.4046C69.2716 19.6611 67.8432 17.901 65.6608 17.8925C63.3055 17.8925 61.4547 19.8623 61.4405 22.4443C61.4235 25.5138 61.4405 28.5805 61.4405 31.6472L61.432 33.3109Z" fill="white"/>
<path d="M88.0433 13.0403H95.0242C95.0468 13.5533 95.0837 14.0521 95.0865 14.5481C95.1064 17.7112 95.044 20.877 95.1489 24.0373C95.2509 27.0926 96.8183 28.4871 99.6044 28.2235C101.373 28.0534 102.407 27.2343 102.756 25.4998C102.961 24.3882 103.062 23.2601 103.059 22.1298C103.099 19.1595 103.059 16.1778 103.059 13.0998H110.244C110.1 17.8529 110.137 22.5663 109.751 27.2457C109.502 30.2528 107.591 32.2935 104.607 33.1693C101.012 34.2372 97.185 34.247 93.5844 33.1976C90.5602 32.3474 88.7349 30.2642 88.3438 27.1805C88.0603 24.8507 88.0858 22.4756 88.0405 20.1203C88.0093 17.8132 88.0433 15.5033 88.0433 13.0403Z" fill="white"/>
<path d="M111.077 31.2277L113.838 26.5795C115.039 27.2002 116.105 27.8833 117.284 28.3084C118.117 28.5971 119.007 28.6864 119.88 28.5692C120.334 28.5068 120.94 27.8889 121.045 27.4354C121.127 27.0642 120.668 26.3584 120.266 26.126C119.333 25.5903 118.265 25.3069 117.298 24.8223C115.394 23.8671 113.449 22.8751 112.764 20.6474C111.777 17.507 113.421 14.4318 116.732 13.2272C120.569 11.8299 124.316 12.3203 128.236 13.9698L126.113 18.2212C124.157 17.9378 122.428 17.592 120.666 17.456C120.226 17.422 119.739 18.0228 119.274 18.3374C119.628 18.8221 119.88 19.5307 120.357 19.7546C121.845 20.4461 123.474 20.8203 124.948 21.5543C128.026 23.099 129.154 25.7405 128.335 28.9546C128.133 29.8573 127.706 30.6944 127.094 31.3881C126.483 32.0818 125.705 32.6097 124.835 32.9226C120.717 34.4616 116.615 34.3624 112.647 32.3557C112.096 32.0197 111.571 31.6427 111.077 31.2277Z" fill="white"/>
<path d="M85.4048 33.311H78.6025V13.0544H85.4048V33.311Z" fill="white"/>
<path d="M82.097 8.7236C81.2798 8.70945 80.485 8.45327 79.8134 7.98744C79.1418 7.52161 78.6234 6.86705 78.3238 6.10657C78.0241 5.34609 77.9568 4.51384 78.1302 3.71508C78.3036 2.91631 78.71 2.18692 79.298 1.61915C79.886 1.05138 80.6292 0.670735 81.4335 0.52536C82.2379 0.379984 83.0673 0.47641 83.8168 0.802438C84.5663 1.12847 85.2023 1.66945 85.6444 2.35697C86.0864 3.0445 86.3147 3.84767 86.3002 4.66491C86.2764 5.75899 85.8213 6.79936 85.0341 7.55951C84.2469 8.31967 83.1912 8.73806 82.097 8.7236Z" fill="white"/>
<path d="M81.0558 55.9805V47.2532H82.1127V51.1396H86.7661V47.2532H87.8229V55.9805H86.7661V52.0771H82.1127V55.9805H81.0558ZM89.9387 55.9805V47.2532H95.2057V48.1907H90.9955V51.1396H94.933V52.0771H90.9955V55.043H95.2739V55.9805H89.9387ZM97.4685 55.9805H96.3605L99.5651 47.2532H100.656L103.861 55.9805H102.753L100.145 48.6339H100.076L97.4685 55.9805ZM97.8776 52.5714H102.343V53.5089H97.8776V52.5714ZM105.22 55.9805V47.2532H106.277V55.043H110.334V55.9805H105.22ZM110.332 48.1907V47.2532H116.878V48.1907H114.134V55.9805H113.077V48.1907H110.332ZM118.509 55.9805V47.2532H119.566V51.1396H124.219V47.2532H125.276V55.9805H124.219V52.0771H119.566V55.9805H118.509ZM134.415 49.9805H133.358C133.295 49.6765 133.186 49.4094 133.03 49.1793C132.876 48.9492 132.689 48.756 132.467 48.5998C132.248 48.4407 132.005 48.3214 131.738 48.2418C131.471 48.1623 131.193 48.1225 130.903 48.1225C130.375 48.1225 129.896 48.256 129.467 48.5231C129.041 48.7901 128.701 49.1836 128.449 49.7035C128.199 50.2234 128.074 50.8612 128.074 51.6168C128.074 52.3725 128.199 53.0103 128.449 53.5302C128.701 54.0501 129.041 54.4435 129.467 54.7106C129.896 54.9776 130.375 55.1112 130.903 55.1112C131.193 55.1112 131.471 55.0714 131.738 54.9918C132.005 54.9123 132.248 54.7944 132.467 54.6381C132.689 54.479 132.876 54.2844 133.03 54.0543C133.186 53.8214 133.295 53.5543 133.358 53.2532H134.415C134.335 53.6992 134.19 54.0984 133.98 54.4506C133.77 54.8029 133.508 55.1026 133.196 55.3498C132.883 55.5941 132.532 55.7802 132.143 55.908C131.757 56.0359 131.343 56.0998 130.903 56.0998C130.159 56.0998 129.497 55.918 128.917 55.5543C128.338 55.1907 127.882 54.6737 127.549 54.0032C127.217 53.3327 127.051 52.5373 127.051 51.6168C127.051 50.6964 127.217 49.9009 127.549 49.2305C127.882 48.56 128.338 48.043 128.917 47.6793C129.497 47.3157 130.159 47.1339 130.903 47.1339C131.343 47.1339 131.757 47.1978 132.143 47.3256C132.532 47.4535 132.883 47.641 133.196 47.8881C133.508 48.1325 133.77 48.4308 133.98 48.783C134.19 49.1325 134.335 49.5316 134.415 49.9805ZM136.48 55.9805H135.372L138.577 47.2532H139.668L142.872 55.9805H141.764L139.156 48.6339H139.088L136.48 55.9805ZM136.889 52.5714H141.355V53.5089H136.889V52.5714ZM144.232 55.9805V47.2532H147.18C147.862 47.2532 148.422 47.3697 148.859 47.6026C149.297 47.8327 149.621 48.1495 149.831 48.5529C150.041 48.9563 150.146 49.4151 150.146 49.9293C150.146 50.4435 150.041 50.8995 149.831 51.2972C149.621 51.695 149.298 52.0075 148.864 52.2347C148.429 52.4592 147.874 52.5714 147.198 52.5714H144.811V51.6168H147.163C147.629 51.6168 148.004 51.5487 148.288 51.4123C148.575 51.2759 148.783 51.0827 148.911 50.8327C149.041 50.5799 149.107 50.2788 149.107 49.9293C149.107 49.5799 149.041 49.2745 148.911 49.0131C148.78 48.7518 148.571 48.5501 148.284 48.408C147.997 48.2631 147.618 48.1907 147.146 48.1907H145.288V55.9805H144.232ZM148.34 52.06L150.487 55.9805H149.26L147.146 52.06H148.34ZM151.907 55.9805V47.2532H157.174V48.1907H152.964V51.1396H156.902V52.0771H152.964V55.043H157.243V55.9805H151.907ZM162.454 55.9805V47.2532H163.511V51.1396H168.165V47.2532H169.221V55.9805H168.165V52.0771H163.511V55.9805H162.454ZM177.064 47.2532H178.121V53.0316C178.121 53.6282 177.981 54.1609 177.699 54.6296C177.421 55.0955 177.027 55.4634 176.519 55.7333C176.01 56.0004 175.414 56.1339 174.729 56.1339C174.044 56.1339 173.448 56.0004 172.939 55.7333C172.431 55.4634 172.036 55.0955 171.755 54.6296C171.476 54.1609 171.337 53.6282 171.337 53.0316V47.2532H172.394V52.9464C172.394 53.3725 172.488 53.7518 172.675 54.0842C172.863 54.4137 173.13 54.6737 173.476 54.864C173.826 55.0515 174.243 55.1452 174.729 55.1452C175.215 55.1452 175.633 55.0515 175.982 54.864C176.331 54.6737 176.598 54.4137 176.783 54.0842C176.971 53.7518 177.064 53.3725 177.064 52.9464V47.2532ZM180.232 55.9805V47.2532H183.283C183.891 47.2532 184.392 47.3583 184.787 47.5685C185.182 47.7759 185.476 48.0558 185.669 48.408C185.862 48.7575 185.959 49.1452 185.959 49.5714C185.959 49.9464 185.892 50.256 185.759 50.5004C185.628 50.7447 185.455 50.9379 185.239 51.0799C185.026 51.2219 184.794 51.3271 184.544 51.3952V51.4805C184.811 51.4975 185.08 51.5913 185.35 51.7617C185.619 51.9322 185.845 52.1765 186.027 52.4947C186.209 52.8129 186.3 53.2021 186.3 53.6623C186.3 54.0998 186.2 54.4933 186.002 54.8427C185.803 55.1921 185.489 55.4691 185.06 55.6737C184.631 55.8782 184.073 55.9805 183.385 55.9805H180.232ZM181.288 55.043H183.385C184.075 55.043 184.565 54.9094 184.855 54.6424C185.148 54.3725 185.294 54.0458 185.294 53.6623C185.294 53.3668 185.219 53.0941 185.068 52.8441C184.918 52.5913 184.703 52.3896 184.425 52.239C184.146 52.0856 183.817 52.0089 183.436 52.0089H181.288V55.043ZM181.288 51.0884H183.249C183.567 51.0884 183.854 51.0259 184.109 50.9009C184.368 50.7759 184.573 50.5998 184.723 50.3725C184.877 50.1452 184.953 49.8782 184.953 49.5714C184.953 49.1879 184.82 48.8626 184.553 48.5955C184.286 48.3256 183.862 48.1907 183.283 48.1907H181.288V51.0884Z" fill="#F6039B"/>
</svg>
